<svg t="1765532694283" class="icon" viewBox="0 0 1024 1024" version="1.1" xmlns="http://www.w3.org/2000/svg" p-id="5846" width="256" height="256"><path d="M696.94 884.74H326.48c-46.21 0-83.81-37.61-83.81-83.82V222.87c0-46.21 37.6-83.81 83.81-83.81h370.46c46.21 0 83.81 37.6 83.81 83.81v578.05c0 46.21-37.6 83.82-83.81 83.82zM326.48 212.2c-5.88 0-10.67 4.79-10.67 10.67v578.05c0 5.89 4.79 10.68 10.67 10.68h370.46c5.88 0 10.67-4.79 10.67-10.68V222.87c0-5.88-4.79-10.67-10.67-10.67H326.48z" fill="#000000" p-id="5847"></path><path d="M585.98 780.17H437.44c-20.2 0-36.57-16.38-36.57-36.57 0-20.2 16.38-36.57 36.57-36.57h148.54c20.2 0 36.57 16.38 36.57 36.57s-16.38 36.57-36.57 36.57z" fill="#000000" p-id="5848"></path></svg>